<?xml version="1.0" encoding="utf-8"?>
<!-- Generator: Adobe Illustrator 19.0.0, SVG Export Plug-In . SVG Version: 6.00 Build 0)  -->
<svg version="1.0" id="Layer_1" xmlns="http://www.w3.org/2000/svg" xmlns:xlink="http://www.w3.org/1999/xlink" x="0px" y="0px"
	 viewBox="0 0 200 200" style="enable-background:new 0 0 200 200;" xml:space="preserve">
<style type="text/css">
	.st0{clip-path:url(#XMLID_2_);}
	.st1{fill:#FFFFFF;}
	.st2{fill:#C02033;}
	.st3{fill:#222C64;}
	.st4{fill:#B58F2E;}
</style>
<g id="XMLID_88_">
	<g id="XMLID_93_">
		<defs>
			<path id="XMLID_22_" d="M197.6,99.5c0,53.8-43.6,97.3-97.3,97.3S3,153.3,3,99.5C3,45.7,46.5,2.2,100.3,2.2S197.6,45.7,197.6,99.5
				z"/>
		</defs>
		<clipPath id="XMLID_2_">
			<use xlink:href="#XMLID_22_"  style="overflow:visible;"/>
		</clipPath>
		<g id="XMLID_95_" class="st0">
			<rect id="XMLID_86_" x="-42.9" y="2.2" class="st1" width="370.5" height="194.7"/>
			<g id="XMLID_148_">
				<rect id="XMLID_85_" x="-42.9" y="2.2" class="st2" width="370.3" height="14.6"/>
				<rect id="XMLID_84_" x="-42.8" y="32.2" class="st2" width="370.3" height="14.6"/>
				<rect id="XMLID_83_" x="-42.8" y="62.2" class="st2" width="370.3" height="14.5"/>
				<rect id="XMLID_82_" x="-42.8" y="92.2" class="st2" width="370.3" height="14.6"/>
				<rect id="XMLID_81_" x="-42.8" y="122.2" class="st2" width="370.3" height="14.5"/>
				<rect id="XMLID_80_" x="-42.7" y="152.3" class="st2" width="370.3" height="14.6"/>
				<rect id="XMLID_79_" x="-42.7" y="182.3" class="st2" width="370.3" height="14.6"/>
			</g>
			<rect id="XMLID_78_" x="-42.9" y="2.2" class="st3" width="148.1" height="104.6"/>
			<g id="XMLID_96_">
				<polygon id="XMLID_77_" class="st1" points="-30.3,6.8 -29,10.7 -24.9,10.7 -28.2,13.1 -27,17 -30.3,14.6 -33.6,17 -32.3,13.1 
					-35.7,10.7 -31.6,10.7 				"/>
				<polygon id="XMLID_76_" class="st1" points="-5.6,6.8 -4.3,10.7 -0.2,10.7 -3.5,13.1 -2.3,17 -5.6,14.6 -8.9,17 -7.7,13.1 
					-11,10.7 -6.9,10.7 				"/>
				<polygon id="XMLID_75_" class="st1" points="19.1,6.8 20.4,10.7 24.5,10.7 21.1,13.1 22.4,17 19.1,14.6 15.7,17 17,13.1 
					13.7,10.7 17.8,10.7 				"/>
				<polygon id="XMLID_74_" class="st1" points="43.8,6.8 45,10.7 49.1,10.7 45.8,13.1 47.1,17 43.8,14.6 40.4,17 41.7,13.1 
					38.4,10.7 42.5,10.7 				"/>
				<polygon id="XMLID_73_" class="st1" points="68.4,6.8 69.7,10.7 73.8,10.7 70.5,13.1 71.8,17 68.4,14.6 65.1,17 66.4,13.1 
					63,10.7 67.2,10.7 				"/>
				<polygon id="XMLID_72_" class="st1" points="93.1,6.8 94.4,10.7 98.5,10.7 95.2,13.1 96.4,17 93.1,14.6 89.8,17 91,13.1 
					87.7,10.7 91.8,10.7 				"/>
				<polygon id="XMLID_71_" class="st1" points="-17.9,17.5 -16.7,21.4 -12.6,21.4 -15.9,23.8 -14.6,27.7 -17.9,25.3 -21.3,27.7 
					-20,23.8 -23.3,21.4 -19.2,21.4 				"/>
				<polygon id="XMLID_70_" class="st1" points="6.7,17.5 8,21.4 12.1,21.4 8.8,23.8 10.1,27.7 6.7,25.3 3.4,27.7 4.7,23.8 
					1.3,21.4 5.4,21.4 				"/>
				<polygon id="XMLID_69_" class="st1" points="31.4,17.5 32.7,21.4 36.8,21.4 33.5,23.8 34.8,27.7 31.4,25.3 28.1,27.7 29.3,23.8 
					26,21.4 30.1,21.4 				"/>
				<polygon id="XMLID_68_" class="st1" points="56.1,17.5 57.4,21.4 61.5,21.4 58.2,23.8 59.4,27.7 56.1,25.3 52.8,27.7 54,23.8 
					50.7,21.4 54.8,21.4 				"/>
				<polygon id="XMLID_67_" class="st1" points="80.8,17.5 82,21.4 86.2,21.4 82.8,23.8 84.1,27.7 80.8,25.3 77.4,27.7 78.7,23.8 
					75.4,21.4 79.5,21.4 				"/>
				<polygon id="XMLID_66_" class="st1" points="-17.9,38.5 -16.7,42.4 -12.6,42.4 -15.9,44.8 -14.6,48.7 -17.9,46.3 -21.3,48.7 
					-20,44.8 -23.3,42.4 -19.2,42.4 				"/>
				<polygon id="XMLID_65_" class="st1" points="6.7,38.5 8,42.4 12.1,42.4 8.8,44.8 10.1,48.7 6.7,46.3 3.4,48.7 4.7,44.8 
					1.3,42.4 5.4,42.4 				"/>
				<polygon id="XMLID_64_" class="st1" points="31.4,38.5 32.7,42.4 36.8,42.4 33.5,44.8 34.8,48.7 31.4,46.3 28.1,48.7 29.3,44.8 
					26,42.4 30.1,42.4 				"/>
				<polygon id="XMLID_63_" class="st1" points="56.1,38.5 57.4,42.4 61.5,42.4 58.2,44.8 59.4,48.7 56.1,46.3 52.8,48.7 54,44.8 
					50.7,42.4 54.8,42.4 				"/>
				<polygon id="XMLID_62_" class="st1" points="80.8,38.5 82,42.4 86.2,42.4 82.8,44.8 84.1,48.7 80.8,46.3 77.4,48.7 78.7,44.8 
					75.4,42.4 79.5,42.4 				"/>
				<polygon id="XMLID_61_" class="st1" points="-17.9,59.5 -16.7,63.4 -12.6,63.4 -15.9,65.8 -14.6,69.7 -17.9,67.3 -21.3,69.7 
					-20,65.8 -23.3,63.4 -19.2,63.4 				"/>
				<polygon id="XMLID_60_" class="st1" points="6.7,59.5 8,63.4 12.1,63.4 8.8,65.8 10.1,69.7 6.7,67.3 3.4,69.7 4.7,65.8 
					1.3,63.4 5.4,63.4 				"/>
				<polygon id="XMLID_59_" class="st1" points="31.4,59.5 32.7,63.4 36.8,63.4 33.5,65.8 34.8,69.7 31.4,67.3 28.1,69.7 29.3,65.8 
					26,63.4 30.1,63.4 				"/>
				<polygon id="XMLID_58_" class="st1" points="56.1,59.5 57.4,63.4 61.5,63.4 58.2,65.8 59.4,69.7 56.1,67.3 52.8,69.7 54,65.8 
					50.7,63.4 54.8,63.4 				"/>
				<polygon id="XMLID_57_" class="st1" points="80.8,59.5 82,63.4 86.2,63.4 82.8,65.8 84.1,69.7 80.8,67.3 77.4,69.7 78.7,65.8 
					75.4,63.4 79.5,63.4 				"/>
				<polygon id="XMLID_56_" class="st1" points="-17.9,80.5 -16.7,84.4 -12.6,84.4 -15.9,86.9 -14.6,90.8 -17.9,88.3 -21.3,90.8 
					-20,86.9 -23.3,84.4 -19.2,84.4 				"/>
				<polygon id="XMLID_55_" class="st1" points="6.7,80.5 8,84.4 12.1,84.4 8.8,86.9 10.1,90.8 6.7,88.3 3.4,90.8 4.7,86.9 
					1.3,84.4 5.4,84.4 				"/>
				<polygon id="XMLID_54_" class="st1" points="31.4,80.5 32.7,84.4 36.8,84.4 33.5,86.9 34.8,90.8 31.4,88.3 28.1,90.8 29.3,86.9 
					26,84.4 30.1,84.4 				"/>
				<polygon id="XMLID_53_" class="st1" points="56.1,80.5 57.4,84.4 61.5,84.4 58.2,86.9 59.4,90.8 56.1,88.3 52.8,90.8 54,86.9 
					50.7,84.4 54.8,84.4 				"/>
				<polygon id="XMLID_52_" class="st1" points="80.8,80.5 82,84.4 86.2,84.4 82.8,86.9 84.1,90.8 80.8,88.3 77.4,90.8 78.7,86.9 
					75.4,84.4 79.5,84.4 				"/>
				<polygon id="XMLID_51_" class="st1" points="-30.3,28 -29,32 -24.9,32 -28.2,34.4 -27,38.3 -30.3,35.9 -33.6,38.3 -32.3,34.4 
					-35.7,32 -31.6,32 				"/>
				<polygon id="XMLID_50_" class="st1" points="-5.6,28 -4.3,32 -0.2,32 -3.5,34.4 -2.3,38.3 -5.6,35.9 -8.9,38.3 -7.7,34.4 
					-11,32 -6.9,32 				"/>
				<polygon id="XMLID_49_" class="st1" points="19.1,28 20.4,32 24.5,32 21.1,34.4 22.4,38.3 19.1,35.9 15.7,38.3 17,34.4 13.7,32 
					17.8,32 				"/>
				<polygon id="XMLID_48_" class="st1" points="43.8,28 45,32 49.1,32 45.8,34.4 47.1,38.3 43.8,35.9 40.4,38.3 41.7,34.4 38.4,32 
					42.5,32 				"/>
				<polygon id="XMLID_47_" class="st1" points="68.4,28 69.7,32 73.8,32 70.5,34.4 71.8,38.3 68.4,35.9 65.1,38.3 66.4,34.4 63,32 
					67.2,32 				"/>
				<polygon id="XMLID_46_" class="st1" points="93.1,28 94.4,32 98.5,32 95.2,34.4 96.4,38.3 93.1,35.9 89.8,38.3 91,34.4 87.7,32 
					91.8,32 				"/>
				<polygon id="XMLID_45_" class="st1" points="-30.3,49.3 -29,53.2 -24.9,53.2 -28.2,55.6 -27,59.5 -30.3,57.1 -33.6,59.5 
					-32.3,55.6 -35.7,53.2 -31.6,53.2 				"/>
				<polygon id="XMLID_44_" class="st1" points="-5.6,49.3 -4.3,53.2 -0.2,53.2 -3.5,55.6 -2.3,59.5 -5.6,57.1 -8.9,59.5 -7.7,55.6 
					-11,53.2 -6.9,53.2 				"/>
				<polygon id="XMLID_43_" class="st1" points="19.1,49.3 20.4,53.2 24.5,53.2 21.1,55.6 22.4,59.5 19.1,57.1 15.7,59.5 17,55.6 
					13.7,53.2 17.8,53.2 				"/>
				<polygon id="XMLID_42_" class="st1" points="43.8,49.3 45,53.2 49.1,53.2 45.8,55.6 47.1,59.5 43.8,57.1 40.4,59.5 41.7,55.6 
					38.4,53.2 42.5,53.2 				"/>
				<polygon id="XMLID_41_" class="st1" points="68.4,49.3 69.7,53.2 73.8,53.2 70.5,55.6 71.8,59.5 68.4,57.1 65.1,59.5 66.4,55.6 
					63,53.2 67.2,53.2 				"/>
				<polygon id="XMLID_40_" class="st1" points="93.1,49.3 94.4,53.2 98.5,53.2 95.2,55.6 96.4,59.5 93.1,57.1 89.8,59.5 91,55.6 
					87.7,53.2 91.8,53.2 				"/>
				<polygon id="XMLID_39_" class="st1" points="-30.3,70.5 -29,74.4 -24.9,74.4 -28.2,76.8 -27,80.8 -30.3,78.3 -33.6,80.8 
					-32.3,76.8 -35.7,74.4 -31.6,74.4 				"/>
				<polygon id="XMLID_38_" class="st1" points="-5.6,70.5 -4.3,74.4 -0.2,74.4 -3.5,76.8 -2.3,80.8 -5.6,78.3 -8.9,80.8 -7.7,76.8 
					-11,74.4 -6.9,74.4 				"/>
				<polygon id="XMLID_37_" class="st1" points="19.1,70.5 20.4,74.4 24.5,74.4 21.1,76.8 22.4,80.8 19.1,78.3 15.7,80.8 17,76.8 
					13.7,74.4 17.8,74.4 				"/>
				<polygon id="XMLID_36_" class="st1" points="43.8,70.5 45,74.4 49.1,74.4 45.8,76.8 47.1,80.8 43.8,78.3 40.4,80.8 41.7,76.8 
					38.4,74.4 42.5,74.4 				"/>
				<polygon id="XMLID_35_" class="st1" points="68.4,70.5 69.7,74.4 73.8,74.4 70.5,76.8 71.8,80.8 68.4,78.3 65.1,80.8 66.4,76.8 
					63,74.4 67.2,74.4 				"/>
				<polygon id="XMLID_32_" class="st1" points="93.1,70.5 94.4,74.4 98.5,74.4 95.2,76.8 96.4,80.8 93.1,78.3 89.8,80.8 91,76.8 
					87.7,74.4 91.8,74.4 				"/>
				<polygon id="XMLID_31_" class="st1" points="-30.3,91.7 -29,95.7 -24.9,95.7 -28.2,98.1 -27,102 -30.3,99.6 -33.6,102 
					-32.3,98.1 -35.7,95.7 -31.6,95.7 				"/>
				<polygon id="XMLID_30_" class="st1" points="-5.6,91.7 -4.3,95.7 -0.2,95.7 -3.5,98.1 -2.3,102 -5.6,99.6 -8.9,102 -7.7,98.1 
					-11,95.7 -6.9,95.7 				"/>
				<polygon id="XMLID_29_" class="st1" points="19.1,91.7 20.4,95.7 24.5,95.7 21.1,98.1 22.4,102 19.1,99.6 15.7,102 17,98.1 
					13.7,95.7 17.8,95.7 				"/>
				<polygon id="XMLID_28_" class="st1" points="43.8,91.7 45,95.7 49.1,95.7 45.8,98.1 47.1,102 43.8,99.6 40.4,102 41.7,98.1 
					38.4,95.7 42.5,95.7 				"/>
				<polygon id="XMLID_27_" class="st1" points="68.4,91.7 69.7,95.7 73.8,95.7 70.5,98.1 71.8,102 68.4,99.6 65.1,102 66.4,98.1 
					63,95.7 67.2,95.7 				"/>
				<polygon id="XMLID_24_" class="st1" points="93.1,91.7 94.4,95.7 98.5,95.7 95.2,98.1 96.4,102 93.1,99.6 89.8,102 91,98.1 
					87.7,95.7 91.8,95.7 				"/>
			</g>
		</g>
	</g>
	<g id="XMLID_89_">
		<path id="XMLID_90_" class="st4" d="M100.3,198.6c-54.7,0-99.1-44.5-99.1-99.1S45.6,0.4,100.3,0.4s99.1,44.5,99.1,99.1
			S155,198.6,100.3,198.6z M100.3,4C47.6,4,4.8,46.8,4.8,99.5c0,52.7,42.9,95.5,95.5,95.5c52.7,0,95.5-42.9,95.5-95.5
			C195.8,46.8,153,4,100.3,4z"/>
	</g>
</g>
</svg>
