<?xml version="1.0" encoding="utf-8"?>
<!-- Generator: Adobe Illustrator 19.0.0, SVG Export Plug-In . SVG Version: 6.00 Build 0)  -->
<svg version="1.0" id="Layer_1" xmlns="http://www.w3.org/2000/svg" xmlns:xlink="http://www.w3.org/1999/xlink" x="0px" y="0px"
	 viewBox="0 0 200 200" style="enable-background:new 0 0 200 200;" xml:space="preserve">
<style type="text/css">
	.st0{clip-path:url(#XMLID_21_);}
	.st1{fill:#2B2F83;}
	.st2{fill:#FFFFFF;}
	.st3{fill:#ED1C24;}
	.st4{fill:#B58F2E;}
</style>
<g id="XMLID_18_">
	<g id="XMLID_23_">
		<defs>
			<path id="XMLID_3_" d="M196.6,98.9c0,53.6-43.5,97-97,97s-97-43.5-97-97s43.4-97,97-97S196.6,45.3,196.6,98.9z"/>
		</defs>
		<clipPath id="XMLID_21_">
			<use xlink:href="#XMLID_3_"  style="overflow:visible;"/>
		</clipPath>
		<g id="XMLID_25_" class="st0">
			<rect id="XMLID_16_" x="-94.6" y="1.8" class="st1" width="388.3" height="194.2"/>
			<polygon id="XMLID_15_" class="st2" points="99.6,13.1 99.6,1.9 77.8,1.9 18.3,31.6 18.3,1.9 -13.4,1.9 -13.4,31.3 -72.8,1.9 
				-94.6,1.9 -94.6,12.2 -50.3,34.4 -94.6,34.4 -94.6,66.2 -50.6,66.2 -94.6,88.2 -94.6,98.6 -72.8,98.6 -13.4,69.2 -13.4,98.7 
				18.3,98.7 18.3,68.8 77.8,98.6 99.6,98.6 99.6,87.4 56.9,66.2 99.6,66.2 99.6,34.4 56.6,34.4 			"/>
			<g id="XMLID_33_">
				<polygon id="XMLID_14_" class="st3" points="99.6,40.8 12,40.8 12,1.9 -7,1.9 -7,40.8 -94.6,40.8 -94.6,59.8 -7,59.8 -7,98.7 
					12,98.7 12,59.8 99.6,59.8 				"/>
				<g id="XMLID_34_">
					<polygon id="XMLID_13_" class="st3" points="-16.9,66.8 -31,66.8 -93.2,98.6 -80.5,98.6 					"/>
					<polygon id="XMLID_12_" class="st3" points="50.1,66.8 36.1,66.8 99.6,98.6 99.6,98.6 99.6,92.1 					"/>
					<polygon id="XMLID_11_" class="st3" points="-31,33.6 -94.6,1.8 -94.6,1.8 -94.6,8.3 -45.1,33.6 					"/>
					<polygon id="XMLID_10_" class="st3" points="23.3,33.6 37.4,33.6 99.6,1.9 86.9,1.9 					"/>
				</g>
			</g>
			<g id="XMLID_26_">
				<polygon id="XMLID_9_" class="st2" points="2.6,118.8 -3,135.6 -19.7,129.7 -10.5,144.5 -25.7,154 -8,155.2 -9.9,172.9 
					2.6,160.2 14.9,172.9 12.9,155.2 29.9,153.6 14.9,144.5 24.8,129.5 8.1,135.7 				"/>
				<polygon id="XMLID_8_" class="st2" points="148,73.9 145.5,81.5 137.9,78.9 142.1,85.6 135.1,90 143.2,90.5 142.4,98.6 
					148,92.8 153.7,98.6 152.8,90.5 160.6,89.8 153.7,85.6 158.2,78.8 150.6,81.6 				"/>
				<polygon id="XMLID_7_" class="st2" points="196.7,21.1 194.1,28.7 186.5,26.1 190.7,32.8 183.8,37.2 191.8,37.7 191,45.8 
					196.7,40 202.3,45.8 201.4,37.7 209.2,37 202.3,32.8 206.8,26 199.2,28.8 				"/>
				<polygon id="XMLID_6_" class="st2" points="239.9,61.2 237.4,68.8 229.7,66.1 234,72.9 227,77.2 235.1,77.8 234.2,85.8 
					239.9,80 245.5,85.8 244.6,77.8 252.4,77 245.5,72.9 250,66 242.4,68.9 				"/>
				<polygon id="XMLID_5_" class="st2" points="196.7,150.8 194.2,158.5 186.6,155.8 190.8,162.6 183.8,166.9 191.9,167.4 
					191.1,175.5 196.7,169.7 202.4,175.5 201.4,167.4 209.2,166.7 202.4,162.6 206.9,155.7 199.3,158.5 				"/>
				<polygon id="XMLID_4_" class="st2" points="216.2,99.3 217.9,104.6 223.5,104.6 219,107.9 220.7,113.2 216.2,110 211.7,113.2 
					213.4,107.9 208.9,104.6 214.5,104.6 				"/>
			</g>
		</g>
	</g>
	<g id="XMLID_19_">
		<path id="XMLID_20_" class="st4" d="M99.6,197.8c-54.5,0-98.8-44.3-98.8-98.8S45.1,0.1,99.6,0.1s98.8,44.3,98.8,98.8
			S154.1,197.8,99.6,197.8z M99.6,3.7C47.1,3.7,4.3,46.4,4.3,98.9s42.7,95.2,95.2,95.2c52.5,0,95.2-42.7,95.2-95.2
			S152.1,3.7,99.6,3.7z"/>
	</g>
</g>
</svg>
