<svg id="Layer_1" data-name="Layer 1" xmlns="http://www.w3.org/2000/svg" viewBox="0 0 586.95 73.86"><title>wynsum-logo</title><path d="M114.77,31.44c0,0.45-.08.68-0.23,0.68q-8.15,0-12.23,10.3l-23.1,59q-0.11.45-1.25,0.45t-1.25-.45L62,69.71l-12.34,31.7q-0.11.45-1.25,0.45t-1.25-.45L18.75,40.16q-2.15-4.76-4-6.4a7.73,7.73,0,0,0-5.27-1.64q-0.34,0-.34-0.68t0.34-.68L13,30.87q2.94,0.23,5.55.23,5.09,0,10.08-.23,1.58-.11,4.3-0.11,0.34,0,.34.68t-0.34.68a12.16,12.16,0,0,0-4.76.68,2.59,2.59,0,0,0-1.47,2.6,14.5,14.5,0,0,0,1.58,5.1l23,49,9.17-23.21L48.31,40.16A20.68,20.68,0,0,0,44.4,34a6.65,6.65,0,0,0-4.81-1.92q-0.34,0-.34-0.68t0.34-.68l3.51,0.11q2.72,0.23,5,.23,4.3,0,7.93-.23,1.13-.11,3.06-0.11,0.34,0,.34.68t-0.34.68a7.06,7.06,0,0,0-2.77.4,1.43,1.43,0,0,0-.85,1.42,7.72,7.72,0,0,0,.68,2.6q0.68,1.7,1.7,4L65.06,56l5.55-14a19.94,19.94,0,0,0,1.58-6.34q0-3.51-4.19-3.51c-0.15,0-.23-0.23-0.23-0.68s0.07-.68.23-0.68l2.26,0.11a48.41,48.41,0,0,0,5.21.23q2.15,0,4.87-.23L85,30.76q0.23,0,.23.68T85,32.12a10.06,10.06,0,0,0-6.68,2.38q-2.83,2.38-5,7.93L66.65,59.29,80.8,89.52l18.57-47.1a13,13,0,0,0,1-4.64q0-5.66-7.93-5.66-0.34,0-.34-0.68t0.34-.68l4.87,0.11q4.08,0.23,7.13.23,2.26,0,5.21-.23l4.87-.11C114.69,30.76,114.77,31,114.77,31.44Z" transform="translate(-9.13 -29.52)" style="fill:#231f20"/><path d="M204.44,31.44q0,0.68-.23.68-3.85,0-8.32,3.45a33.89,33.89,0,0,0-8,9.11l-14,22.08V92.36a15.06,15.06,0,0,0,.62,5.1A3.6,3.6,0,0,0,177,99.6a22.39,22.39,0,0,0,5.94.57q0.34,0,.34.68t-0.34.68q-3.51,0-5.55-.11l-8.15-.11-7.93.11q-2,.11-5.77.11-0.34,0-.34-0.68t0.34-.68a23.08,23.08,0,0,0,6-.57,3.78,3.78,0,0,0,2.6-2.21,14,14,0,0,0,.68-5V68.69l-18-26.83a33,33,0,0,0-6.4-7.59,9.53,9.53,0,0,0-5.94-2.15q-0.34,0-.34-0.68t0.34-.68q1.24,0,4,.23l3.74,0.11q3.74,0,10.3-.23l6.57-.11q0.23,0,.23.68t-0.23.68q-5.32,0-5.32,2.72A6.31,6.31,0,0,0,155,38L172.4,64l12.68-20q2.72-4.42,2.72-7.25a4.06,4.06,0,0,0-1.58-3.45,7.66,7.66,0,0,0-4.64-1.19q-0.34,0-.34-0.68t0.34-.68l5.55,0.11q4.53,0.23,8.27.23,1.92,0,4.64-.23l4.19-.11Q204.44,30.76,204.44,31.44Z" transform="translate(-9.13 -29.52)" style="fill:#231f20"/><path d="M304.64,31.44q0,0.68-.34.68-9.29,0-9.28,11.77V103a0.51,0.51,0,0,1-.51.34,0.77,0.77,0,0,1-.74-0.11l-53.1-63V88.51q0,6,2.21,8.83t6.74,2.83q0.34,0,.34.68t-0.34.68q-2.95,0-4.53-.11l-5.77-.11-6.11.11q-1.7.11-5,.11c-0.15,0-.23-0.23-0.23-0.68s0.07-.68.23-0.68q4.87,0,7.19-2.83t2.32-8.83V37.1q-5-5-9.85-5-0.34,0-.34-0.68t0.34-.68l4.42,0.11q1.36,0.11,3.85.11l5.89-.11a24.68,24.68,0,0,1,2.6-.11,1.8,1.8,0,0,1,1.3.4,13.91,13.91,0,0,1,1.3,1.76,37.19,37.19,0,0,0,2.83,3.74l42.12,50.84V43.89q0-6-2.15-8.89t-6.68-2.89c-0.15,0-.23-0.23-0.23-0.68s0.07-.68.23-0.68l4.53,0.11q3.4,0.23,5.77.23,2,0,5.89-.23l4.76-.11Q304.64,30.76,304.64,31.44Z" transform="translate(-9.13 -29.52)" style="fill:#231f20"/><path d="M346.42,51a22.76,22.76,0,0,0,5.21,5.55,100.37,100.37,0,0,0,8.49,5.6q5.66,3.51,9,6.06a24.11,24.11,0,0,1,5.72,6.28,16.1,16.1,0,0,1,2.38,8.83,18.07,18.07,0,0,1-2.89,10,19.45,19.45,0,0,1-8.26,7,28.93,28.93,0,0,1-12.51,2.55,37.69,37.69,0,0,1-8.94-1.08,26.28,26.28,0,0,1-7.7-3.11,2,2,0,0,1-.79-0.79,3.14,3.14,0,0,1-.23-1.36l-1.13-16.19c-0.08-.3.09-0.49,0.51-0.57a0.54,0.54,0,0,1,.74.34,43.82,43.82,0,0,0,7.59,14.61,15.56,15.56,0,0,0,12.68,6,13.67,13.67,0,0,0,8.89-2.89q3.57-2.89,3.57-9.45a16.5,16.5,0,0,0-2.26-8.72A23.35,23.35,0,0,0,361,73.39a86.93,86.93,0,0,0-8.66-5.83q-5.32-3.4-8.44-5.83a21.81,21.81,0,0,1-5.26-6,15.79,15.79,0,0,1-2.15-8.32,15.74,15.74,0,0,1,3.11-9.85,18.57,18.57,0,0,1,8.15-6.06,28.69,28.69,0,0,1,10.59-2,34.64,34.64,0,0,1,13.7,2.6,2.22,2.22,0,0,1,1.7,2l0.57,14.15a0.58,0.58,0,0,1-.57.57,0.49,0.49,0,0,1-.68-0.34,29.12,29.12,0,0,0-5.32-11.61q-4.08-5.49-11.55-5.49-5.66,0-8.77,3.4a12.24,12.24,0,0,0-3.11,8.6A13.25,13.25,0,0,0,346.42,51Z" transform="translate(-9.13 -29.52)" style="fill:#231f20"/><path d="M465.82,35.12q-2.55-3-7.53-3-0.34,0-.34-0.68t0.34-.68l5.1,0.11q4.08,0.23,6.45.23,2,0,5.89-.23l4.87-.11q0.23,0,.23.68t-0.23.68q-9.17,0-9.17,11.77V75.82q0,12.68-7.42,19.93T444.25,103a32,32,0,0,1-14.72-3.23,23.39,23.39,0,0,1-9.85-9.28,27.83,27.83,0,0,1-3.51-14.21V39.93a13.52,13.52,0,0,0-.68-5,4,4,0,0,0-2.55-2.21,20.54,20.54,0,0,0-5.95-.62q-0.34,0-.34-0.68t0.34-.68l5.66,0.11q5,0.23,7.93.23,3.17,0,8.15-.23l5.44-.11q0.34,0,.34.68t-0.34.68a18.36,18.36,0,0,0-5.83.68,4.11,4.11,0,0,0-2.55,2.32,14,14,0,0,0-.68,5V72.31q0,13.36,5.83,20.21t16.36,6.85q9.85,0,15.46-6.17t5.6-17.27v-32Q468.37,38.12,465.82,35.12Z" transform="translate(-9.13 -29.52)" style="fill:#231f20"/><path d="M596.08,100.85c0,0.45-.08.68-0.23,0.68q-3.62,0-5.77-.11l-8-.11-7.59.11q-1.93.11-5.32,0.11-0.34,0-.34-0.68t0.34-.68q5,0,6.74-1.13t1.76-4.76l-0.11-1.92-2.15-49.82-25,58.2a1.13,1.13,0,0,1-1.81,0L520.34,43l-0.91,45.52q-0.11,6,2.15,8.83t7.36,2.83c0.23,0,.34.23,0.34,0.68s-0.11.68-.34,0.68q-3.06,0-4.76-.11L518,101.3l-6.23.11q-1.59.11-4.64,0.11c-0.15,0-.23-0.23-0.23-0.68s0.08-.68.23-0.68q9.4,0,9.51-11.66l1-50.72q-3.63-5.66-9.74-5.66c-0.15,0-.23-0.23-0.23-0.68s0.08-.68.23-0.68l4.53,0.11q1.36,0.11,3.51.11,2.49,0,4.08-.11t2.49-.11a3,3,0,0,1,2.38,1,27.49,27.49,0,0,1,2.83,4.87l25.14,51.06,23.66-54.12q1.13-2.83,3.4-2.83c0.45,0,1.06,0,1.81.11s1.74,0.11,2.94.11l5.77-.11q1.36-.11,4-0.11,0.34,0,.34.68t-0.34.68q-5.55,0-8,1.81t-2.32,6.34l2.49,52.08a16.67,16.67,0,0,0,.91,5.1A3.76,3.76,0,0,0,590,99.6a21.69,21.69,0,0,0,5.89.57C596,100.17,596.08,100.39,596.08,100.85Z" transform="translate(-9.13 -29.52)" style="fill:#231f20"/></svg>